<svg xmlns="http://www.w3.org/2000/svg" style="display:none">
  <symbol id="icon-search" viewBox="0 0 24 24"><circle cx="10.7" cy="10.7" r="6.4"/><path d="m15.5 15.5 5 5"/></symbol>
  <symbol id="icon-menu" viewBox="0 0 24 24"><path d="M4 7h16M4 12h16M4 17h16"/></symbol>
  <symbol id="icon-close" viewBox="0 0 24 24"><path d="m5 5 14 14M19 5 5 19"/></symbol>
  <symbol id="icon-arrow-right" viewBox="0 0 24 24"><path d="M4 12h15M14 7l5 5-5 5"/></symbol>
  <symbol id="icon-arrow-up-right" viewBox="0 0 24 24"><path d="M6 18 18 6M9 6h9v9"/></symbol>
  <symbol id="icon-chevron-right" viewBox="0 0 24 24"><path d="m9 5 7 7-7 7"/></symbol>
  <symbol id="icon-chevron-down" viewBox="0 0 24 24"><path d="m5 9 7 7 7-7"/></symbol>
  <symbol id="icon-filter" viewBox="0 0 24 24"><path d="M4 6h8M16 6h4M4 12h3M11 12h9M4 18h11M19 18h1"/><circle cx="14" cy="6" r="2"/><circle cx="9" cy="12" r="2"/><circle cx="17" cy="18" r="2"/></symbol>
  <symbol id="icon-sort" viewBox="0 0 24 24"><path d="M8 4v16M4.5 7.5 8 4l3.5 3.5M16 20V4M12.5 16.5 16 20l3.5-3.5"/></symbol>
  <symbol id="icon-grid-1" viewBox="0 0 24 24"><rect x="5" y="4" width="14" height="16" rx="1.5"/></symbol>
  <symbol id="icon-grid-2" viewBox="0 0 24 24"><rect x="4" y="4" width="7" height="7" rx="1"/><rect x="13" y="4" width="7" height="7" rx="1"/><rect x="4" y="13" width="7" height="7" rx="1"/><rect x="13" y="13" width="7" height="7" rx="1"/></symbol>
  <symbol id="icon-sofa" viewBox="0 0 24 24"><path d="M6 11V8.5A2.5 2.5 0 0 1 8.5 6h7A2.5 2.5 0 0 1 18 8.5V11"/><path d="M5 10.5a2 2 0 0 0-2 2V17h18v-4.5a2 2 0 0 0-2-2 2 2 0 0 0-2 2V14H7v-1.5a2 2 0 0 0-2-2Z"/><path d="M5 17v2M19 17v2"/></symbol>
  <symbol id="icon-armchair" viewBox="0 0 24 24"><path d="M7 12V7.5A3 3 0 0 1 10 4h4a3 3 0 0 1 3 3.5V12"/><path d="M6 10.5a2 2 0 0 0-2 2V17h16v-4.5a2 2 0 0 0-4 0V15H8v-2.5a2 2 0 0 0-2-2Z"/><path d="M6 17v3M18 17v3"/></symbol>
  <symbol id="icon-bed" viewBox="0 0 24 24"><path d="M4 19v-9M20 19v-6a3 3 0 0 0-3-3H9"/><path d="M4 15h16M6 10V7h5a3 3 0 0 1 3 3"/><path d="M4 19v1M20 19v1"/></symbol>
  <symbol id="icon-chair" viewBox="0 0 24 24"><path d="M8 4h8l-1 8H9L8 4Z"/><path d="M9 12h6v3H8a2 2 0 0 1-2-2v-1M9 15l-1 5M15 15l1 5"/></symbol>
  <symbol id="icon-table" viewBox="0 0 24 24"><path d="M4 8h16M6 8l1 12M18 8l-1 12M5 5h14v3H5z"/></symbol>
  <symbol id="icon-sleep" viewBox="0 0 24 24"><path d="M4 18h16M5 15V9h5a4 4 0 0 1 4 4v2M14 11h3a3 3 0 0 1 3 3v1"/><path d="M5 18v2M19 18v2"/></symbol>
  <symbol id="icon-layers" viewBox="0 0 24 24"><path d="m12 4 8 4-8 4-8-4 8-4Z"/><path d="m4 12 8 4 8-4M4 16l8 4 8-4"/></symbol>
  <symbol id="icon-cushion" viewBox="0 0 24 24"><path d="M7 6c1.5-1.5 8.5-1.5 10 0 1.5 1.5 1.5 10.5 0 12-1.5 1.5-8.5 1.5-10 0C5.5 16.5 5.5 7.5 7 6Z"/><path d="M9 9c1.5-1 4.5-1 6 0M9 15c1.5 1 4.5 1 6 0"/></symbol>
  <symbol id="icon-mechanism" viewBox="0 0 24 24"><circle cx="12" cy="12" r="3"/><path d="M12 3v3M12 18v3M3 12h3M18 12h3M5.6 5.6l2.1 2.1M16.3 16.3l2.1 2.1M18.4 5.6l-2.1 2.1M7.7 16.3l-2.1 2.1"/><circle cx="12" cy="12" r="8"/></symbol>
  <symbol id="icon-modular" viewBox="0 0 24 24"><rect x="4" y="4" width="7" height="7" rx="1"/><rect x="13" y="4" width="7" height="7" rx="1"/><rect x="4" y="13" width="7" height="7" rx="1"/><path d="M16.5 13v7M13 16.5h7"/></symbol>
  <symbol id="icon-leaf" viewBox="0 0 24 24"><path d="M19 5C10 5 5 9 5 15c0 2 1 4 3 5 7-1 11-6 11-15Z"/><path d="M6 19c3-4 6-7 10-9"/></symbol>
  <symbol id="icon-upholstery" viewBox="0 0 24 24"><path d="M5 5c3 1.5 11 1.5 14 0v14c-3-1.5-11-1.5-14 0V5Z"/><path d="M8 7.5c2 .7 6 .7 8 0M8 16.5c2-.7 6-.7 8 0"/></symbol>
  <symbol id="icon-wood" viewBox="0 0 24 24"><rect x="4" y="5" width="16" height="14" rx="2"/><path d="M7 9c2-2 5-2 7 0s4 2 6 0M4 14c2-2 5-2 7 0s5 2 9-1"/></symbol>
  <symbol id="icon-metal" viewBox="0 0 24 24"><path d="M6 5h12l2 5-8 10-8-10 2-5Z"/><path d="M4 10h16M9 5l3 15M15 5l-3 15"/></symbol>
  <symbol id="icon-storage" viewBox="0 0 24 24"><path d="M4 8h16v11H4zM3 5h18v3H3z"/><path d="M10 12h4"/></symbol>
  <symbol id="icon-ruler" viewBox="0 0 24 24"><path d="m5 17 12-12 3 3L8 20l-3-3Z"/><path d="m12 10 2 2M9 13l2 2M15 7l2 2"/></symbol>
  <symbol id="icon-dimensions" viewBox="0 0 24 24"><path d="M5 5h14v14H5z"/><path d="M8 3v4M16 3v4M3 8h4M3 16h4M17 8h4M17 16h4M8 17v4M16 17v4"/></symbol>
  <symbol id="icon-pdf" viewBox="0 0 24 24"><path d="M7 3h7l4 4v14H7z"/><path d="M14 3v5h5M9 13h6M9 16h5"/></symbol>
  <symbol id="icon-download" viewBox="0 0 24 24"><path d="M12 4v11M8 11l4 4 4-4M5 20h14"/></symbol>
  <symbol id="icon-gallery" viewBox="0 0 24 24"><rect x="4" y="5" width="16" height="14" rx="2"/><circle cx="9" cy="10" r="1.5"/><path d="m6 17 4-4 3 3 2-2 3 3"/></symbol>
  <symbol id="icon-message" viewBox="0 0 24 24"><path d="M5 5h14v11H9l-4 4V5Z"/><path d="M8 9h8M8 12h5"/></symbol>
  <symbol id="icon-offer" viewBox="0 0 24 24"><path d="M4 5h10l6 6-9 9-7-7V5Z"/><circle cx="9" cy="9" r="1.5"/></symbol>
  <symbol id="icon-phone" viewBox="0 0 24 24"><path d="M7 4 4.5 6.5c1 6 7 12 13 13L20 17l-4-3-2 2c-2.5-1-5-3.5-6-6l2-2-3-4Z"/></symbol>
  <symbol id="icon-mail" viewBox="0 0 24 24"><rect x="3" y="5" width="18" height="14" rx="2"/><path d="m4 7 8 6 8-6"/></symbol>
  <symbol id="icon-pin" viewBox="0 0 24 24"><path d="M12 21s6-5.5 6-11a6 6 0 1 0-12 0c0 5.5 6 11 6 11Z"/><circle cx="12" cy="10" r="2"/></symbol>
  <symbol id="icon-factory" viewBox="0 0 24 24"><path d="M4 20V9l5 3V9l5 3V5h4l2 15H4Z"/><path d="M8 16h2M13 16h2M17 16h2"/></symbol>
  <symbol id="icon-laser" viewBox="0 0 24 24"><path d="M5 19h14M7 16h10M12 4v7M9 7h6"/><path d="m10 12-2 2M14 12l2 2M12 12v3"/></symbol>
  <symbol id="icon-bend" viewBox="0 0 24 24"><path d="M5 18h5a8 8 0 0 0 8-8V5"/><path d="m15 8 3-3 3 3"/></symbol>
  <symbol id="icon-truck" viewBox="0 0 24 24"><path d="M3 6h11v10H3zM14 10h4l3 3v3h-7z"/><circle cx="7" cy="18" r="2"/><circle cx="18" cy="18" r="2"/></symbol>
  <symbol id="icon-cycle" viewBox="0 0 24 24"><path d="M18 8a7 7 0 0 0-12-2L4 8M6 16a7 7 0 0 0 12 2l2-2"/><path d="M4 4v4h4M20 20v-4h-4"/></symbol>
  <symbol id="icon-spark" viewBox="0 0 24 24"><path d="m12 3 1.4 5.6L19 10l-5.6 1.4L12 17l-1.4-5.6L5 10l5.6-1.4L12 3Z"/><path d="m18 16 .7 2.3L21 19l-2.3.7L18 22l-.7-2.3L15 19l2.3-.7L18 16Z"/></symbol>
</svg>